<?xml version="1.0" encoding="UTF-8"?>
<svg version="1.1" xmlns="http://www.w3.org/2000/svg" width="2000" height="1431">
<path d="M0 0 C4.08358719 8.16717438 0.13685017 19.8238708 -2.4375 27.9375 C-2.79585937 29.10192627 -3.15421875 30.26635254 -3.5234375 31.46606445 C-8.83150932 48.30289175 -15.69806247 64.43101358 -24 80 C-24.37737305 80.71607422 -24.75474609 81.43214844 -25.14355469 82.16992188 C-37.8611819 106.18863469 -54.30225821 129.1691515 -74 148 C-76.7429151 150.72409579 -79.4619826 153.4698989 -82.1640625 156.234375 C-89.11097478 163.31357125 -96.16227444 169.90064178 -104 176 C-105.24587688 177.00777445 -106.49058307 178.01699719 -107.734375 179.02734375 C-153.42686541 215.77929742 -206.86773505 241.7989404 -262 261 C-263.16547363 261.41169434 -264.33094727 261.82338867 -265.53173828 262.24755859 C-288.37233974 270.28554029 -311.64733709 276.6453412 -335 283 C-336.02464355 283.27884033 -337.04928711 283.55768066 -338.10498047 283.8449707 C-339.14799316 284.12880615 -340.19100586 284.4126416 -341.265625 284.70507812 C-347.74038838 286.46710729 -354.2142796 288.23231102 -360.6875 290 C-362.28489014 290.43575348 -362.28489014 290.43575348 -363.91455078 290.88031006 C-384.71953571 296.56370984 -405.38196384 302.67503594 -426 309 C-414.31348731 307.76046801 -402.67655432 306.32603684 -391.046875 304.63671875 C-389.44843011 304.40632369 -387.849975 304.17599956 -386.25151062 303.94573975 C-381.08341386 303.19930344 -375.91659756 302.44423444 -370.75 301.6875 C-369.41418318 301.49214094 -369.41418318 301.49214094 -368.05138016 301.29283524 C-233.13688807 282.32289662 -233.13688807 282.32289662 -44.1640625 222.24609375 C-42 221 -42 221 -40 221 C-40.10733054 249.33526386 -61.04837162 276.66759164 -79 297 C-79.721875 297.84433594 -80.44375 298.68867187 -81.1875 299.55859375 C-85.4611856 304.50838976 -89.98854775 308.81053198 -95 313 C-95.80308594 313.71414063 -96.60617187 314.42828125 -97.43359375 315.1640625 C-164.04297992 373.17564137 -261.19838263 386.70598285 -467.7578125 420.29443359 C-474.17801316 421.15403294 -480.59031549 422.06513585 -487 423 C-479.54130429 426.72934785 -468.54031538 425.17853341 -460.41796875 425.203125 C-458.98629222 425.21014988 -457.554616 425.21723667 -456.12294006 425.22438049 C-451.47778968 425.24408071 -446.83268781 425.24882744 -442.1875 425.25 C-440.98890602 425.25066278 -440.98890602 425.25066278 -439.76609802 425.25133896 C-407.10057949 425.26078943 -374.60260879 424.1270384 -342 422 C-341.3317646 421.95671066 -340.66352921 421.91342133 -339.97504425 421.86882019 C-235.13901493 415.14185654 -235.13901493 415.14185654 -131.39892578 399.43847656 C-127.94518954 398.80720134 -124.4889138 398.38719941 -121 398 C-120.35654028 403.93307709 -122.49548272 407.76074728 -125.25 412.8125 C-125.69529053 413.64128662 -126.14058105 414.47007324 -126.59936523 415.32397461 C-133.55344716 427.96153092 -141.91979612 439.66831494 -152 450 C-152.825 450.845625 -153.65 451.69125 -154.5 452.5625 C-155.325 453.366875 -156.15 454.17125 -157 455 C-157.58523438 455.63035156 -158.17046875 456.26070312 -158.7734375 456.91015625 C-169.69710417 468.4226451 -182.98203052 476.76134989 -197 484 C-197.66725098 484.34659668 -198.33450195 484.69319336 -199.02197266 485.05029297 C-272.87615974 522.89278739 -370.25105931 519.52291938 -450.80078125 520.2734375 C-451.87610359 520.28364048 -452.95142593 520.29384346 -454.0593338 520.30435562 C-464.92591844 520.4064341 -475.79242309 520.49705812 -486.65934849 520.55330849 C-490.75009166 520.57591461 -494.84076242 520.60586113 -498.93144798 520.63707352 C-500.85572468 520.64976122 -502.78002881 520.65884802 -504.70433998 520.6641655 C-507.35763825 520.67161791 -510.01060628 520.69094169 -512.66381836 520.71289062 C-513.44003351 520.71191439 -514.21624866 520.71093815 -515.01598549 520.70993233 C-519.11201253 520.75700642 -522.3130337 521.17037549 -526 523 C-514.75206425 524.91934326 -503.45333388 526.068381 -492.10546875 527.20703125 C-490.05606745 527.41479729 -488.00668016 527.62270156 -485.95730591 527.83073425 C-479.36800401 528.49769876 -472.77781421 529.15562564 -466.1875 529.8125 C-465.0665884 529.92450745 -463.9456768 530.03651489 -462.79079819 530.1519165 C-425.91102179 533.83639805 -389.03819832 537.31004141 -352.05541992 539.79290771 C-349.22326306 539.98486753 -346.39187241 540.18535975 -343.56054688 540.38916016 C-320.2558119 542.04396584 -296.93906383 542.19708309 -273.58549118 542.24453354 C-271.24530724 542.24986822 -268.90514611 542.25797876 -266.56497192 542.26651001 C-235.60910036 542.36276828 -204.83540611 540.71666043 -174 538 C-175.89271916 543.64743153 -178.01827577 547.94264098 -181.75 552.5625 C-182.1931958 553.12477295 -182.6363916 553.6870459 -183.09301758 554.26635742 C-185.98403298 557.88287478 -189.01603941 561.23002921 -192.375 564.41015625 C-194.10582792 566.10353838 -195.63360578 567.89354465 -197.1875 569.75 C-209.70294654 584.14830133 -225.63247672 595.64120274 -242.17626953 604.97070312 C-243.36914771 605.64395271 -244.55784991 606.32466958 -245.74169922 607.01367188 C-309.1565113 643.88734555 -390.89144284 645.01181989 -462 639 C-462.75142273 638.93683594 -463.50284546 638.87367188 -464.27703857 638.80859375 C-485.6725205 636.99286215 -507.00046571 634.60945849 -528.3125 632 C-529.30549103 631.88047974 -530.29848206 631.76095947 -531.32156372 631.63781738 C-544.69328825 630.01858566 -557.83105344 627.83276596 -571 625 C-571 625.99 -571 626.98 -571 628 C-425.73600557 665.93616473 -425.73600557 665.93616473 -278 692 C-278.93666662 693.10965971 -279.87579102 694.21724504 -280.81591797 695.32397461 C-281.33862274 695.9409874 -281.86132751 696.55800018 -282.39987183 697.19371033 C-296.6693645 713.30169322 -317.06245735 725.27778635 -336 735 C-337.08619629 735.56944336 -337.08619629 735.56944336 -338.19433594 736.15039062 C-357.70110581 746.29702236 -379.22920552 753.69555928 -401 757 C-402.14170654 757.17442627 -403.28341309 757.34885254 -404.4597168 757.52856445 C-414.81312046 758.97315081 -424.99183869 759.36057902 -435.4375 759.3125 C-436.26560181 759.31067719 -437.09370361 759.30885437 -437.94689941 759.30697632 C-452.14703236 759.25464712 -465.97700348 758.34474264 -480 756 C-481.38372803 755.7824707 -481.38372803 755.7824707 -482.79541016 755.56054688 C-515.15611456 750.37924539 -547.12537151 741.16099305 -578.5625 732.0625 C-579.49204498 731.79373047 -580.42158997 731.52496094 -581.37930298 731.24804688 C-584.04733371 730.47375169 -586.71362906 729.69387401 -589.37890625 728.91015625 C-590.20920853 728.66653351 -591.0395108 728.42291077 -591.89497375 728.17190552 C-595.77472334 727.01804113 -599.61479739 725.80738075 -603.42529297 724.44091797 C-604.11123032 724.19740097 -604.79716766 723.95388397 -605.50389099 723.70298767 C-607.32481976 723.04657029 -609.13731351 722.36688135 -610.94897461 721.68530273 C-614.43900893 720.90139249 -615.89651927 721.33106855 -619 723 C-618.35603271 723.24419678 -617.71206543 723.48839355 -617.04858398 723.73999023 C-588.18646767 734.74525926 -560.05361536 747.40527285 -531.840271 759.95846558 C-524.37962801 763.27794109 -516.91806883 766.5953519 -509.45507812 769.9095459 C-507.89242483 770.60361819 -506.32990949 771.29800121 -504.76757812 771.99279785 C-467.50279406 788.56144805 -429.30248031 803.87229471 -389.80883789 814.30273438 C-384.19582521 815.80417479 -384.19582521 815.80417479 -382 818 C-416.67773261 848.93498173 -461.56090742 860.17266826 -507 858 C-550.23915106 854.63858766 -601.09943536 834.666174 -636 809 C-636.33 809.33 -636.66 809.66 -637 810 C-636.00742188 810.73863281 -635.01484375 811.47726562 -633.9921875 812.23828125 C-627.37696162 817.17322826 -620.78281238 822.1259646 -614.3125 827.25 C-601.03757034 837.74717879 -587.60489393 848.05570879 -573.74414062 857.76953125 C-571.8668387 859.09394358 -570.00327145 860.43631241 -568.140625 861.78125 C-545.35971453 878.1650802 -521.34919662 892.8062127 -496.02880859 904.93066406 C-495.24844238 905.30803711 -494.46807617 905.68541016 -493.6640625 906.07421875 C-492.97779785 906.39994873 -492.2915332 906.72567871 -491.58447266 907.0612793 C-490 908 -490 908 -489 910 C-514.98476064 930.31241164 -543.37674262 934.89598275 -575.77880859 931.61767578 C-623.97181937 924.7309943 -661.97952239 894.7532639 -695 861 C-690.42397658 868.43437105 -685.53412622 875.47700432 -680.1875 882.375 C-679.48391357 883.28910645 -678.78032715 884.20321289 -678.05541992 885.14501953 C-676.66324121 886.95339684 -675.26950039 888.76057289 -673.87402344 890.56640625 C-672.30176366 892.60813182 -670.74293176 894.6583444 -669.1953125 896.71875 C-654.77182903 915.82395434 -638.34071018 934.55519143 -620 950 C-619.46793945 950.45117188 -618.93587891 950.90234375 -618.38769531 951.3671875 C-609.62421127 958.76512045 -600.59935025 965.53156956 -591.03198242 971.86181641 C-590.25959229 972.37534668 -589.48720215 972.88887695 -588.69140625 973.41796875 C-588.00248291 973.86938232 -587.31355957 974.3207959 -586.60375977 974.78588867 C-585 976 -585 976 -584 978 C-604.45067981 990.26035841 -631.80356682 989.8996345 -654.3515625 984.3125 C-703.96642376 970.7490243 -737.99587062 936.23623574 -763.00708008 892.64794922 C-763.89490047 891.02485264 -763.89490047 891.02485264 -765 890 C-763.79201571 898.17768212 -762.08590883 906.05474865 -759.8125 914 C-759.35121704 915.62240601 -759.35121704 915.62240601 -758.88061523 917.27758789 C-749.12683519 951.05442893 -734.51825422 982.49473898 -713.12304688 1010.48413086 C-710.52771674 1013.888157 -708.1096431 1017.26312365 -706 1021 C-707.6851169 1022.6851169 -709.68273135 1022.25267921 -712 1022.3125 C-725.65722502 1022.16669333 -738.6822937 1017.58206149 -751 1012 C-751.63228516 1011.71672852 -752.26457031 1011.43345703 -752.91601562 1011.14160156 C-768.13322168 1004.22121388 -782.34890239 994.92390875 -795 984 C-796.15242188 983.01193359 -796.15242188 983.01193359 -797.328125 982.00390625 C-816.5219427 965.13192134 -832.70642782 945.82323624 -846 924 C-846.71225765 928.56476087 -847.15937013 933.01647024 -847.29711914 937.63330078 C-847.33706497 938.91611435 -847.3770108 940.19892792 -847.41816711 941.52061462 C-847.45733136 942.91217587 -847.4963229 944.30374198 -847.53515625 945.6953125 C-847.57851976 947.15414608 -847.6221191 948.61297267 -847.66593933 950.0717926 C-847.804764 954.75601648 -847.93410386 959.4404805 -848.0625 964.125 C-848.10712988 965.73296122 -848.15176694 967.34092224 -848.19641113 968.94888306 C-849.42317554 1013.43101784 -849.78069125 1057.23834713 -843.33544922 1101.36914062 C-843 1104 -843 1104 -843 1107 C-849.04360882 1104.46870079 -851.68264593 1098.87347245 -854.31738281 1093.12646484 C-855.65462247 1089.83547947 -856.90382694 1086.52330323 -858.125 1083.1875 C-858.59473361 1081.92433987 -859.06462744 1080.66123931 -859.53466797 1079.39819336 C-892.01603746 991.4647639 -911.59457579 899.02164697 -926.25 662.97265625 C-917.22457788 643.43814908 -901.9951401 628.5433792 -885.87548828 614.63037109 C-883.02360259 612.15121298 -880.26393677 609.57626205 -877.5 607 C-873.44083301 603.23342743 -869.3458471 599.52776613 -865.15625 595.90625 C-861.64510069 592.80219046 -858.22312466 589.60155602 -854.79052734 586.41113281 C-851.7862928 583.62518085 -848.75017833 580.90092948 -845.625 578.25 C-842.32554217 575.40015382 -839.52191737 572.28024895 -836.70703125 568.95703125 C-835.08739193 567.10019075 -833.39876709 565.39602508 -831.625 563.6875 C-813.30003485 545.56569411 -798.799436 522.21830854 -786 500 C-785.40106934 498.96456055 -785.40106934 498.96456055 -784.79003906 497.90820312 C-758.34815168 451.96000538 -752.30293381 408.30697201 -759.22119141 356.02197266 C-763.37210395 323.94934827 -761.16696527 293.41653645 -740.9375 267 C-721.73742795 242.82293005 -692.96901529 231.13460301 -662.85107422 227.46728516 C-651.66929205 226.20710973 -640.52280448 225.56959383 -629.28076172 225.1668396 C-571.88890303 223.060722 -515.08863099 215.07704148 -459.25366211 201.54437256 C-456.80372237 200.9525891 -454.35215174 200.36788139 -451.90039062 199.78369141 C-386.25685394 184.09973625 -320.87071823 164.68094734 -258 140 C-256.38932954 139.37042577 -254.77865216 138.74086924 -253.16796875 138.11132812 C-182.37767591 110.38691882 -109.14447489 79.38891064 -47 35 C-46.25105469 34.46503906 -45.50210938 33.93007813 -44.73046875 33.37890625 C-33.73001134 25.47973866 -23.17125134 17.16015884 -12.77978516 8.47998047 C-10.39709214 6.49865193 -7.9909463 4.54994068 -5.5625 2.625 C-4.57443359 1.83996094 -4.57443359 1.83996094 -3.56640625 1.0390625 C-2 0 -2 0 0 0 Z " fill="#DCB84D" transform="translate(1979,310)"/>
<path d="M0 0 C3.59435739 -0.50782664 4.82913701 -0.12150779 7.83984375 2.01953125 C8.88217312 2.93956109 9.91416412 3.87138944 10.9375 4.8125 C12.09715541 5.8340815 13.25867297 6.85355237 14.421875 7.87109375 C15.01548828 8.39429199 15.60910156 8.91749023 16.22070312 9.45654297 C50.36534349 39.07542557 90.7244268 61.9426919 130.8046875 82.36865234 C133.65681873 83.82479086 136.50114092 85.29492779 139.34375 86.76953125 C155.1146779 94.87947356 171.3504052 101.95713872 187.58935547 109.06591797 C191.55632514 110.80304418 195.51498128 112.55821222 199.47265625 114.31640625 C243.60876398 133.81727956 288.94860202 150.37143241 334.81744385 165.28900146 C336.94883026 165.98333073 339.07880911 166.68182543 341.20849609 167.38134766 C419.45840404 193.03127411 501.94368718 212.95547404 584 221 C585.62228516 221.15976318 585.62228516 221.15976318 587.27734375 221.32275391 C600.2752783 222.55424611 613.28785078 223.15646939 626.32885742 223.6940918 C667.62550884 225.40166178 710.66041216 228.87128304 740.8125 260.8125 C760.19898668 283.59252438 765.83193867 310.6674028 764 340 C763.33185323 347.87043475 762.39982953 355.71590929 761.5 363.5625 C753.57487017 433.15841907 776.76446652 490.43147024 819.67578125 545.08984375 C820.44277344 546.05019531 821.20976563 547.01054688 822 548 C823.10408203 549.39412109 823.10408203 549.39412109 824.23046875 550.81640625 C838.2492648 568.25926222 854.15113969 585.44324099 872 599 C881.05459197 605.96717246 889.72154307 613.12094231 898 621 C898.71671875 621.66386719 899.4334375 622.32773437 900.171875 623.01171875 C925.33317168 647.01559579 937.6765256 681.33171847 938.50683594 715.52856445 C938.87151723 737.57643079 935.8359749 759.07161531 932.48754883 780.81463623 C931.98658849 784.08762309 931.49678279 787.36211792 931.00976562 790.63720703 C923.50773214 840.98588507 914.46988013 891.06116645 902.58276367 940.5692749 C902.01298146 942.94585393 901.44827084 945.32358592 900.88476562 947.70166016 C892.35418296 983.60102661 881.78867539 1018.88275978 869.76940918 1053.76208496 C868.97655909 1056.06818057 868.18934881 1058.37614129 867.40332031 1060.68457031 C866.07793131 1064.57385738 864.74062807 1068.45885292 863.39404297 1072.34085083 C862.89113239 1073.79368365 862.39101477 1075.24748706 861.89404297 1076.70236206 C853.98643963 1099.7950774 853.98643963 1099.7950774 845 1106 C845.08040527 1105.36312256 845.16081055 1104.72624512 845.24365234 1104.07006836 C846.69418889 1092.49991842 848.08973192 1080.92812622 849.125 1069.3125 C849.20024902 1068.49837646 849.27549805 1067.68425293 849.35302734 1066.84545898 C850.84831073 1049.3338424 851.20252348 1031.75421591 851.1875 1014.1875 C851.18789276 1013.19516357 851.18828552 1012.20282715 851.18869019 1011.18041992 C851.18031891 993.10844065 850.70088511 975.05975725 850.0625 957 C849.99728653 955.13086441 849.99728653 955.13086441 849.93075562 953.22396851 C849.8043283 949.66991709 849.67144038 946.11618597 849.53515625 942.5625 C849.49655487 941.50932083 849.45795349 940.45614166 849.41818237 939.37104797 C849.19514976 933.85867908 848.77762777 928.46251971 848 923 C847.32195313 924.00417969 846.64390625 925.00835938 845.9453125 926.04296875 C837.93903703 937.8363488 829.75114886 949.25288567 820.06640625 959.74609375 C818.23259442 961.7463006 816.48962633 963.79343238 814.75 965.875 C788.38562245 995.91953093 750.11195 1015.32942378 711 1022 C708 1022.09765625 708 1022.09765625 706 1022 C707.68356238 1018.06849921 710.32587352 1014.97343281 713 1011.6875 C741.3599136 976.12298941 757.10551324 933.70731331 768 890 C765.75654884 892.74735305 763.61397779 895.44099902 761.80859375 898.49609375 C761.42719238 899.1298291 761.04579102 899.76356445 760.65283203 900.41650391 C760.25177246 901.08343262 759.85071289 901.75036133 759.4375 902.4375 C754.51433245 910.4493538 749.00851834 917.77720957 743 925 C742.50177734 925.60118652 742.00355469 926.20237305 741.49023438 926.82177734 C716.62657558 956.68502191 684.39077456 979.56849912 644.84521484 983.77294922 C624.91283436 985.36357165 605.33498231 984.03059495 586 979 C587.29588893 975.11233322 588.81042573 974.59398701 592.25 972.4375 C614.99720913 957.66658498 635.47269442 938.63364032 653 918 C653.5377002 917.36908447 654.07540039 916.73816895 654.62939453 916.08813477 C668.12304361 900.13869834 680.30739359 883.300285 692 866 C688.14241303 868.95280748 684.74719518 872.20621912 681.375 875.6875 C675.9013714 881.23187561 670.18040001 886.24395708 664 891 C663.46068848 891.42104004 662.92137695 891.84208008 662.36572266 892.27587891 C628.84573249 918.32162446 585.43067204 936.44700334 542.33642578 931.70703125 C525.97163718 929.43253046 504.15077343 923.00745209 493.11328125 909.73046875 C492.74589844 909.15941406 492.37851562 908.58835937 492 908 C493.92920117 906.98463097 495.85844071 905.96933481 497.7878418 904.9543457 C499.4995755 904.05304119 501.21065572 903.15049471 502.92114258 902.24682617 C507.14963415 900.01491902 511.38286371 897.79702547 515.6484375 895.63671875 C535.09701867 885.72479768 553.39315112 873.87597936 571 861 C571.75055664 860.45520996 572.50111328 859.91041992 573.27441406 859.34912109 C582.79277079 852.43796643 592.17260008 845.37019567 601.43237305 838.11645508 C606.96965721 833.78247824 612.57491812 829.54939916 618.21435547 825.34960938 C623.40151133 821.47590568 628.50481888 817.50344156 633.57324219 813.47583008 C636.00150023 811.54940719 638.41870271 809.72086486 641 808 C637.71585555 809.24831276 634.71367316 810.64521158 631.69140625 812.43359375 C630.87381836 812.91199707 630.05623047 813.39040039 629.21386719 813.88330078 C628.33891602 814.39618652 627.46396484 814.90907227 626.5625 815.4375 C593.43352021 834.54060904 558.73318497 848.32375744 521 855 C520.25121582 855.13277344 519.50243164 855.26554687 518.73095703 855.40234375 C474.11564775 862.89258195 431.63363238 850.82976275 395.0234375 825.25390625 C386.2709983 818.89996646 386.2709983 818.89996646 385.16015625 815.2109375 C385.08087891 814.11652344 385.08087891 814.11652344 385 813 C385.56058105 812.92072266 386.12116211 812.84144531 386.69873047 812.75976562 C414.66597001 808.67168135 440.1188949 798.95224203 466 788 C467.98662516 787.16139085 469.97328043 786.32285302 471.95996094 785.484375 C500.66808512 773.35748364 529.28782502 761.02807647 557.84819031 748.55754089 C564.25276587 745.76106649 570.66074569 742.97251324 577.0703125 740.1875 C579.72460798 739.03342462 582.37882215 737.87916251 585.0329895 736.72479248 C586.68472495 736.00664317 588.33663382 735.28889254 589.98873901 734.57159424 C594.99903035 732.39575813 600.00354827 730.20743648 605 728 C605.6569989 727.71072632 606.3139978 727.42145264 606.99090576 727.12341309 C608.83972654 726.30593694 610.68367766 725.47747361 612.52734375 724.6484375 C613.5649585 724.18356934 614.60257324 723.71870117 615.67163086 723.23974609 C618.13233973 722.21807578 618.13233973 722.21807578 619 720 C613.17051114 720.60986928 608.04124643 722.19907433 602.5234375 724.1328125 C590.98907965 728.0704646 579.34463652 731.53481643 567.625 734.875 C566.57117126 735.17614716 565.51734253 735.47729431 564.43157959 735.78756714 C539.26373845 742.95470135 513.89940318 749.06135923 488.1875 753.9375 C487.19959473 754.12513916 486.21168945 754.31277832 485.19384766 754.50610352 C469.55131806 757.31680884 454.06295662 758.38159698 438.1875 758.3125 C436.87463516 758.30976578 436.87463516 758.30976578 435.5352478 758.30697632 C422.47231943 758.26126061 409.80935414 757.75947625 397 755 C396.15598633 754.82839355 395.31197266 754.65678711 394.44238281 754.47998047 C358.96132207 747.17351986 325.75357217 731.33513292 298 708 C296.70191037 706.92958144 295.40373023 705.85927263 294.10546875 704.7890625 C292.81897826 703.71513799 291.53378687 702.63965502 290.25 701.5625 C289.6526001 701.06613037 289.0552002 700.56976074 288.43969727 700.05834961 C285.51498812 697.56102249 283.57344067 695.49194227 282 692 C282.83182297 691.87297951 282.83182297 691.87297951 283.68045044 691.74339294 C371.77247169 678.27394432 457.57015045 657.35618316 554.42410278 631.94250488 C557.01086386 631.26070818 559.59872907 630.58426124 562.18795776 629.9119873 C563.56925878 629.55046819 564.95053582 629.18885749 566.33178711 628.82714844 C568.20899696 628.3386441 568.20899696 628.3386441 570.12413025 627.840271 C572.87314785 627.28699148 572.87314785 627.28699148 574 626 C566.74036854 625.82634769 559.8568308 626.24571214 552.69140625 627.390625 C550.72542762 627.68923822 548.75944436 627.98782098 546.79345703 628.28637695 C545.77689026 628.44385406 544.76032349 628.60133118 543.71295166 628.76358032 C513.59817784 633.41320525 483.42552984 637.13024624 453 639 C452.07638672 639.05784668 451.15277344 639.11569336 450.20117188 639.17529297 C373.41850146 643.77297597 278.87307114 638.96378341 218.21704102 585.78881836 C216.80706904 584.53067198 215.40329073 583.26559409 214 582 C212.66731189 580.87423574 211.33405626 579.74914264 210 578.625 C179.70426093 551.85202129 179.70426093 551.85202129 177 537 C178.6228894 537.12846313 178.6228894 537.12846313 180.27856445 537.25952148 C184.3918149 537.58444193 188.50531872 537.90605911 192.61889648 538.22680664 C194.38068312 538.36461339 196.14240499 538.5032513 197.90405273 538.64282227 C200.47361843 538.84624316 203.0434226 539.04641145 205.61328125 539.24609375 C206.36829422 539.3065538 207.12330719 539.36701385 207.90119934 539.42930603 C222.90339058 540.58399177 237.88552731 541.16341665 252.9296875 541.203125 C254.59566775 541.21015517 256.26164777 541.2172419 257.92762756 541.22438049 C263.24342227 541.24381853 268.55917335 541.24881838 273.875 541.25 C274.7858498 541.25044186 275.6966996 541.25088371 276.63515091 541.25133896 C306.79883816 541.25899641 336.77363894 540.59715784 366.85870361 538.24353027 C370.04178878 537.99676031 373.225543 537.76126245 376.40966797 537.52832031 C410.98734012 534.9781334 445.459364 531.37454625 479.9375 527.75 C481.01838646 527.63653606 482.09927292 527.52307213 483.21291351 527.40616989 C489.4716599 526.74879129 495.72995827 526.08738176 501.98763847 525.4199276 C503.91814659 525.21423808 505.84874499 525.00939405 507.77943611 524.80542946 C510.44042937 524.52385029 513.10099807 524.23856325 515.76147461 523.95214844 C516.93354871 523.82904753 516.93354871 523.82904753 518.12930107 523.70345974 C521.49926722 523.33678605 524.72589286 522.87131073 528 522 C524.06732554 519.34237459 519.80936205 519.70754833 515.25146484 519.71289062 C514.36461187 519.7060066 513.4777589 519.69912258 512.5640316 519.69202995 C509.61298117 519.67113872 506.66204947 519.66389865 503.7109375 519.65625 C501.63266337 519.64334292 499.55439558 519.62937679 497.47613525 519.6144104 C493.06493429 519.58383071 488.65374658 519.5582943 484.24249268 519.53668213 C472.84372238 519.47892345 461.44529899 519.37791157 450.046875 519.2734375 C448.93238102 519.26338558 447.81788704 519.25333366 446.66962051 519.24297714 C422.74846262 519.02237126 398.88480276 518.37821053 375 517 C373.08220143 516.8930959 371.16439524 516.78632859 369.24658203 516.6796875 C309.78456835 513.32454245 247.39744126 508.91239606 194 480 C192.94554687 479.43667969 191.89109375 478.87335938 190.8046875 478.29296875 C162.27390744 462.38873496 134.47348889 432.9110323 123.9375 401.5 C123.628125 400.345 123.31875 399.19 123 398 C131.45662696 398.65116028 139.69172741 400.16168136 148.01483154 401.72393799 C237.26115309 418.37118145 327.79476865 422.44101928 420.49019682 422.14405447 C427.66407118 422.12101693 434.83795123 422.11053622 442.01185381 422.10064721 C456.67460696 422.08017725 471.33730211 422.04540425 486 422 C477.64306505 420.27626526 469.31590957 418.63081994 460.85546875 417.4921875 C458.97337818 417.2300558 457.09129862 416.967845 455.20922852 416.70556641 C454.23172638 416.57096008 453.25422424 416.43635376 452.24710083 416.29766846 C406.9302328 410.0373712 361.73918484 402.99979282 316.78161621 394.52416992 C314.11040125 394.0208041 311.43854565 393.52096286 308.76660156 393.02148438 C270.49411031 385.83603682 231.82949424 377.80338641 195 365 C193.96955566 364.64373535 192.93911133 364.2874707 191.87744141 363.92041016 C151.94523179 349.93629464 116.85917274 329.98495745 86 301 C85.31421875 300.37996094 84.6284375 299.75992187 83.921875 299.12109375 C65.71841336 282.02666654 43.69151484 249.91237643 42.875 224.0390625 C42.91625 223.03617188 42.9575 222.03328125 43 221 C48.23886944 222.52283093 52.68726659 224.89297625 57.4375 227.5 C120.21334985 260.96705912 194.77326566 271.13958839 264 283 C265.02565063 283.17642029 266.05130127 283.35284058 267.10803223 283.53460693 C298.39832959 288.91045403 329.77417048 293.65980294 361.1875 298.25 C362.48284164 298.43932791 362.48284164 298.43932791 363.80435181 298.63248062 C382.15975534 301.31364084 400.52108795 303.95317011 418.89251137 306.52242279 C420.48474937 306.74520019 422.07690271 306.96858362 423.66896629 307.19260406 C425.85625044 307.49999478 428.04389866 307.80463751 430.23168945 308.10839844 C431.47078568 308.2812738 432.7098819 308.45414917 433.98652649 308.63226318 C436.99034682 309.06056614 436.99034682 309.06056614 440 309 C439.36835308 308.82975909 438.73670616 308.65951818 438.08591843 308.48411846 C422.52431253 304.28951872 406.9645624 300.08810931 391.40670395 295.8796339 C383.88218208 293.84438066 376.35709995 291.81124968 368.83056641 289.78344727 C282.40964399 266.49652417 193.77098136 241.80224564 117.87695312 183.44433594 C115.89102476 181.91614236 113.87993738 180.42737151 111.859375 178.9453125 C104.68485808 173.67497239 97.85880834 168.30655989 91.359375 162.2109375 C89.36703152 160.34394013 87.33771254 158.57010414 85.25 156.8125 C74.89389739 147.7802703 65.43600137 137.83430792 57 127 C56.36191406 126.22914063 55.72382812 125.45828125 55.06640625 124.6640625 C31.07357745 95.60232621 -1.7223189 43.63207876 -0.1875 4.75 C-0.16042969 3.83734375 -0.13335938 2.9246875 -0.10546875 1.984375 C-0.07066406 1.32953125 -0.03585938 0.6746875 0 0 Z M694 861 C695 863 695 863 695 863 Z " fill="#DCB74D" transform="translate(20,311)"/>
<path d="M0 0 C4.01172793 1.48072361 5.10683624 3.43396297 6.875 7.25 C32.8587736 67.50885184 33.1304891 153.77302074 10.41308594 214.44677734 C-0.17452872 241.06946977 -15.30240946 264.2064543 -32.49658203 286.98242188 C-61.79020021 325.87868035 -87.97087477 375.05495392 -81.49609375 425.42578125 C-80.16220666 434.0377215 -77.58419631 442.07163452 -74 450 C-73.58105469 450.93328125 -73.16210938 451.8665625 -72.73046875 452.828125 C-68.79018185 460.77683057 -63.20841033 466.78243272 -57 473 C-56.41476562 473.59683594 -55.82953125 474.19367188 -55.2265625 474.80859375 C-39.82944315 489.22873852 -16.35006843 495.62857492 4.1875 495.4375 C5.9506958 495.42396484 5.9506958 495.42396484 7.74951172 495.41015625 C30.27004425 494.96621967 49.64903987 487.9755829 65.94140625 472.109375 C82.17200499 454.8257844 91.55071734 426.58905957 91 403 C90.10000384 385.74732139 86.23296756 367.25603707 73 355 C60.9127785 345.15115285 47.61660655 339.74371358 32 341 C19.40250768 343.13596095 9.11215867 347.9498398 1.23828125 358.3203125 C-6.02054189 369.69307822 -10.32402934 384.37163651 -7.38671875 397.8046875 C-2.75920319 412.19687246 8.31797684 420.58068911 21.32421875 427.26953125 C24.11939832 428.675196 26.93511595 430.03007142 29.76171875 431.37109375 C33 433 33 433 35 435 C18.06920193 439.44086507 -2.09830568 438.89957847 -17.5 430.125 C-19.01796392 429.1096897 -20.52002502 428.06992687 -22 427 C-22.60972656 426.59523438 -23.21945312 426.19046875 -23.84765625 425.7734375 C-33.72981324 418.43497923 -41.01728032 403.94804118 -43 392 C-45.55751091 368.12989813 -41.92285954 345.62828627 -26.6875 326.3125 C-11.82683814 308.93809434 9.06902904 297.90336123 32 296 C55.99340837 294.49870596 78.97741198 300.90090497 97.4375 316.66015625 C119.18543356 336.51840656 128.04547673 366.34103421 130 395 C131.61201007 437.67288029 125.73630221 479.43053619 96.8203125 512.4921875 C84.32605666 525.71870741 67.73575439 534.329152 50.4375 539.375 C49.21740234 539.73307739 49.21740234 539.73307739 47.97265625 540.09838867 C34.76565907 543.69828489 21.47192083 544.38192413 7.875 544.3125 C7.1109787 544.31034485 6.3469574 544.3081897 5.55978394 544.30596924 C-20.31604376 544.18927016 -44.27112834 539.86783915 -67 527 C-67.99386719 526.44570313 -68.98773437 525.89140625 -70.01171875 525.3203125 C-77.56627139 520.81560066 -83.69935797 515.0642543 -90 509 C-90.95326172 508.15888672 -90.95326172 508.15888672 -91.92578125 507.30078125 C-113.00707408 488.13139565 -128.34334097 452.00400498 -130 424 C-132.21676706 372.88522548 -115.07137986 328.31237908 -87 286 C-86.30390625 284.95054199 -86.30390625 284.95054199 -85.59375 283.87988281 C-77.12988365 271.20211709 -67.99669151 259.03086682 -58.5625 247.0625 C-58.11632324 246.49523193 -57.67014648 245.92796387 -57.21044922 245.34350586 C-55.30106255 242.91680941 -53.39151752 240.49054915 -51.46533203 238.07714844 C-0.1752294 173.70009749 5.12550237 99.25225877 0.71191406 20.16015625 C0.66593079 19.33560944 0.61994751 18.51106262 0.5725708 17.66152954 C0.48560478 16.12394438 0.39653773 14.58647587 0.30487061 13.04916382 C0.05377381 8.68820507 -0.04001746 4.36547642 0 0 Z " fill="#DCB74D" transform="translate(972,14)"/>
<path d="M0 0 C0.66 0 1.32 0 2 0 C13.24109855 25.59212638 18.2286224 51.13864426 18.25 79.0625 C18.25067474 79.85723724 18.25134949 80.65197449 18.25204468 81.47079468 C18.1863009 130.48063166 5.87170964 178.14638839 -29.3125 213.6875 C-36.10676277 220.40552861 -43.31672994 226.33653904 -51 232 C-51.73798828 232.5451123 -52.47597656 233.09022461 -53.23632812 233.65185547 C-56.47204618 236.03869687 -59.71055393 238.42165928 -62.95410156 240.79785156 C-69.57048967 245.65271641 -76.06527555 250.639893 -82.46826172 255.77246094 C-83.92411444 256.93918511 -85.38573396 258.09870264 -86.84765625 259.2578125 C-94.21613238 265.17379765 -101.1658946 271.48140474 -108 278 C-108.58217285 278.55349121 -109.1643457 279.10698242 -109.76416016 279.67724609 C-138.30141009 306.98222341 -155.02834628 337.96091944 -157 378 C-157.03851074 378.76489746 -157.07702148 379.52979492 -157.11669922 380.31787109 C-158.41423861 411.38780683 -151.77894623 441.99504942 -141.80810547 471.24194336 C-141.42928223 472.35964111 -141.05045898 473.47733887 -140.66015625 474.62890625 C-140.14400757 476.1149939 -140.14400757 476.1149939 -139.61743164 477.63110352 C-139 480 -139 480 -140 482 C-140.70962891 480.96552734 -140.70962891 480.96552734 -141.43359375 479.91015625 C-144.78121825 475.15300564 -148.10251168 470.71510616 -152.3125 466.6875 C-161.9328377 457.39832711 -169.63980968 446.11244421 -177 435 C-177.55429687 434.17242188 -178.10859375 433.34484375 -178.6796875 432.4921875 C-184.90766035 422.71459282 -188.76334061 412.05837063 -191.3125 400.8125 C-191.47186035 400.11318359 -191.6312207 399.41386719 -191.79541016 398.69335938 C-200.22631229 358.50017212 -191.62833113 311.27841848 -169.87890625 276.5390625 C-163.30556559 266.67319292 -155.37397134 258.34772065 -147 250 C-146.17242188 249.14921875 -145.34484375 248.2984375 -144.4921875 247.421875 C-139.17184818 241.99036441 -133.74819153 236.97259256 -127.7890625 232.23046875 C-124.95174421 229.96140889 -122.19819637 227.6114221 -119.4375 225.25 C-107.29531571 215.14969779 -94.27386773 206.43416768 -80.91943359 198.03149414 C-70.33840639 191.35922067 -60.25500788 184.51414152 -51.09765625 175.9375 C-49 174 -49 174 -45.9375 171.6875 C-13.50924941 142.01910052 -0.15018119 88.14790436 1.84375 45.97265625 C2.1944427 37.05629425 1.96356551 28.22265817 1.5625 19.3125 C1.52334473 18.43303711 1.48418945 17.55357422 1.44384766 16.64746094 C1.16980856 11.06378318 0.66919539 5.55038531 0 0 Z " fill="#DCB84D" transform="translate(1130,372)"/>
</svg>
